<?xml version="1.0" encoding="UTF-8" standalone="no"?>
<svg
   xmlns:dc="http://purl.org/dc/elements/1.1/"
   xmlns:cc="http://creativecommons.org/ns#"
   xmlns:rdf="http://www.w3.org/1999/02/22-rdf-syntax-ns#"
   xmlns:svg="http://www.w3.org/2000/svg"
   xmlns="http://www.w3.org/2000/svg"
   xmlns:xlink="http://www.w3.org/1999/xlink"
   xmlns:sodipodi="http://sodipodi.sourceforge.net/DTD/sodipodi-0.dtd"
   xmlns:inkscape="http://www.inkscape.org/namespaces/inkscape"
   sodipodi:docname="local-business.svg"
   inkscape:version="1.0 (4035a4fb49, 2020-05-01)"
   id="svg8"
   version="1.1"
   viewBox="0 0 39.6875 39.6875"
   height="39.6875mm"
   width="39.6875mm">
  <defs
     id="defs2">
    <linearGradient
       id="linearGradient1022"
       inkscape:collect="always">
      <stop
         id="stop1018"
         offset="0"
         style="stop-color:#deb4a4;stop-opacity:1" />
      <stop
         id="stop1020"
         offset="1"
         style="stop-color:#c78469;stop-opacity:1" />
    </linearGradient>
    <linearGradient
       id="linearGradient1014"
       inkscape:collect="always">
      <stop
         id="stop1010"
         offset="0"
         style="stop-color:#c78469;stop-opacity:1;" />
      <stop
         id="stop1012"
         offset="1"
         style="stop-color:#daad9c;stop-opacity:0.98790324" />
    </linearGradient>
    <linearGradient
       id="linearGradient1006"
       inkscape:collect="always">
      <stop
         id="stop1002"
         offset="0"
         style="stop-color:#2f0e00;stop-opacity:1;" />
      <stop
         id="stop1004"
         offset="1"
         style="stop-color:#2f0e00;stop-opacity:0;" />
    </linearGradient>
    <linearGradient
       id="linearGradient996"
       inkscape:collect="always">
      <stop
         id="stop992"
         offset="0"
         style="stop-color:#2f0e00;stop-opacity:1" />
      <stop
         id="stop994"
         offset="1"
         style="stop-color:#8b4513;stop-opacity:0" />
    </linearGradient>
    <linearGradient
       gradientUnits="userSpaceOnUse"
       y2="-108.17198"
       x2="-66.958916"
       y1="-162.06552"
       x1="-58.252731"
       id="linearGradient1000"
       xlink:href="#linearGradient996"
       inkscape:collect="always" />
    <linearGradient
       gradientUnits="userSpaceOnUse"
       y2="-113.51237"
       x2="-6.1268373"
       y1="-163.7832"
       x1="-9.4614401"
       id="linearGradient1008"
       xlink:href="#linearGradient1006"
       inkscape:collect="always" />
    <linearGradient
       gradientUnits="userSpaceOnUse"
       y2="-149.61853"
       x2="-36.102551"
       y1="-168.28929"
       x1="-35.670109"
       id="linearGradient1016"
       xlink:href="#linearGradient1014"
       inkscape:collect="always" />
    <radialGradient
       gradientUnits="userSpaceOnUse"
       gradientTransform="matrix(-0.55408469,0.60707238,-0.55577085,-0.50726097,-119.77094,-151.7642)"
       r="28.467854"
       fy="-105.54529"
       fx="-47.750748"
       cy="-105.54529"
       cx="-47.750748"
       id="radialGradient1024"
       xlink:href="#linearGradient1022"
       inkscape:collect="always" />
  </defs>
  <sodipodi:namedview
     inkscape:window-maximized="1"
     inkscape:window-y="-8"
     inkscape:window-x="-8"
     inkscape:window-height="1057"
     inkscape:window-width="1920"
     showgrid="false"
     inkscape:document-rotation="0"
     inkscape:current-layer="layer2"
     inkscape:document-units="mm"
     inkscape:cy="74.279933"
     inkscape:cx="86.532243"
     inkscape:zoom="3.959798"
     inkscape:pageshadow="2"
     inkscape:pageopacity="0.0"
     borderopacity="1.0"
     bordercolor="#666666"
     pagecolor="#ffffff"
     id="base" />
  <metadata
     id="metadata5">
    <rdf:RDF>
      <cc:Work
         rdf:about="">
        <dc:format>image/svg+xml</dc:format>
        <dc:type
           rdf:resource="http://purl.org/dc/dcmitype/StillImage" />
        <dc:title></dc:title>
      </cc:Work>
    </rdf:RDF>
  </metadata>
  <g
     transform="translate(-58.536322,-37.369642)"
     id="layer1"
     inkscape:groupmode="layer"
     inkscape:label="Image">
    <rect
       ry="0.078760609"
       y="37.378841"
       x="58.545521"
       height="39.669102"
       width="39.669102"
       id="rect833"
       style="fill:#000000;fill-opacity:0.996078;stroke:#ffffff;stroke-width:0.0183979;stroke-dashoffset:132.057" />
    <text
       id="text837"
       y="43.027485"
       x="60.047688"
       style="font-weight:bold;font-size:5.8566px;line-height:1.25;font-family:'Rotis Serif Pro';-inkscape-font-specification:'Rotis Serif Pro Bold';stroke-width:0.183019"
       xml:space="preserve"><tspan
         style="font-size:5.8566px;fill:#ffffff;fill-opacity:1;stroke-width:0.183019"
         y="43.027485"
         x="60.047688"
         id="tspan835"
         sodipodi:role="line">Local </tspan><tspan
         id="tspan839"
         style="font-size:5.8566px;fill:#ffffff;fill-opacity:1;stroke-width:0.183019"
         y="50.348236"
         x="60.047688"
         sodipodi:role="line">Business</tspan></text>
  </g>
  <g
     style="display:inline"
     inkscape:label="Dog"
     id="layer2"
     inkscape:groupmode="layer">
    <g
       transform="matrix(0.16940529,0,0,0.16940529,35.355869,48.761693)"
       id="g1054"
       style="display:inline">
      <path
         style="display:inline;fill:url(#radialGradient1024);fill-opacity:1;stroke:#000000;stroke-width:1;stroke-linecap:butt;stroke-linejoin:miter;stroke-miterlimit:4;stroke-dasharray:none;stroke-opacity:1"
         d="m -52.372582,-134.4844 c -19.72369,42.999967 1.92444,50.870651 19.11067,50.951664 31.7534697,1.506278 38.2863597,-24.963954 15.24597,-53.029744 -8.04821,5.87651 -23.81849,8.46993 -34.35664,2.07808 z"
         id="path904"
         sodipodi:nodetypes="cccc" />
      <path
         sodipodi:nodetypes="ccccc"
         id="path861-8"
         d="m -22.645333,-179.34456 c 15.7001697,2.21829 23.50285569,35.48522 16.8451767,42.08903 -4.4735787,3.9031 -8.2178427,1.59424 -10.5313527,-1.41715 3.430482,-7.34485 1.736655,-12.12267 -0.386008,-14.59106 1.382106,-7.89378 1.056621,-17.3683 -5.927816,-26.08082 z"
         style="display:inline;fill:url(#linearGradient1008);fill-opacity:1;stroke:#000000;stroke-width:1;stroke-linecap:butt;stroke-linejoin:miter;stroke-miterlimit:4;stroke-dasharray:none;stroke-opacity:1" />
      <path
         style="display:inline;fill:url(#linearGradient1000);fill-opacity:1;stroke:#000000;stroke-width:1;stroke-linecap:butt;stroke-linejoin:miter;stroke-miterlimit:4;stroke-dasharray:none;stroke-opacity:1"
         d="m -48.497393,-178.1017 c -15.40132,-0.10018 -23.29794,35.34275 -16.77437,42.17202 4.23475,3.90385 7.77912,1.59454 9.96912,-1.41742 -4.46096,-8.85336 -2.22886,-13.38237 1.70257,-17.10006 -0.43969,-8.6971 1.62022,-19.15006 5.10268,-23.65454 z"
         id="path861"
         sodipodi:nodetypes="ccccc" />
      <path
         style="display:inline;fill:url(#linearGradient1016);fill-opacity:1;stroke:#000000;stroke-width:1;stroke-linecap:butt;stroke-linejoin:miter;stroke-miterlimit:4;stroke-dasharray:none;stroke-opacity:1"
         d="m -34.868302,-183.79092 c 16.20192,0.19009 20.90353,17.93822 18.15079,30.52718 -2.99603,-3.87465 -9.64463,-6.10388 -18.52876,-6.99816 -7.59018,-0.26456 -14.08317,2.55814 -18.3538,5.81474 -0.0251,-6.384 -1.02392,-29.94028 18.73177,-29.34376 z"
         id="path897"
         sodipodi:nodetypes="ccccc" />
      <path
         style="display:inline;fill:#e6d5ad;fill-opacity:1;stroke:#000000;stroke-width:1;stroke-linecap:butt;stroke-linejoin:miter;stroke-miterlimit:4;stroke-dasharray:none;stroke-opacity:1"
         d="m -35.246272,-160.2619 c 16.61048,1.73349 25.4393597,8.40371 18.91476,21.58922 -4.85047,8.69015 -32.5491,11.3113 -38.97113,1.32558 -7.89953,-14.52678 4.73888,-22.96998 20.05637,-22.9148 z"
         id="path901"
         sodipodi:nodetypes="cccc" />
      <path
         style="display:inline;fill:#c78469;fill-opacity:1;stroke:#000000;stroke-width:0.940482;stroke-linecap:butt;stroke-linejoin:miter;stroke-miterlimit:4;stroke-dasharray:none;stroke-opacity:1"
         d="m -52.727673,-107.53731 1.44087,21.684472 c -2.83254,4.485096 -6.02245,8.704572 -2.45315,11.966736 8.07629,5.277306 15.20448,3.362904 18.70648,-0.538203 1.1586,-1.926798 2.2315,-3.899076 -0.3073,-7.788097 -3.14194,-8.302334 -1.42698,-16.604666 -1.5119,-24.906998"
         id="path912"
         sodipodi:nodetypes="cccccc" />
      <path
         style="display:inline;fill:#c78469;fill-opacity:1;stroke:#000000;stroke-width:1;stroke-linecap:butt;stroke-linejoin:miter;stroke-miterlimit:4;stroke-dasharray:none;stroke-opacity:1"
         d="m -59.572152,-99.396919 c -5.06429,2.457941 -8.37408,6.595537 -5.81311,10.891235 3.44401,4.233448 13.96395,2.395582 14.09846,0.668174 -4.45454,-2.809141 -6.91045,-6.59572 -8.28535,-11.559409 z"
         id="path909"
         sodipodi:nodetypes="cccc" />
      <path
         sodipodi:nodetypes="cccccc"
         id="path912-3"
         d="m -29.435742,-106.90014 c -0.49995,8.295998 1.83336,16.415331 -1.81917,24.907914 -2.09755,4.718326 -1.5597,7.651826 2.74459,9.87988 4.93588,1.47541 12.79906,1.510853 16.30106,-2.339439 1.1586,-1.901701 0.0265,-6.706484 -2.51228,-10.544845 -0.80333,-8.36918 1.24572,-13.296861 1.1608,-21.49105"
         style="display:inline;fill:#c78469;fill-opacity:1;stroke:#000000;stroke-width:0.934336;stroke-linecap:butt;stroke-linejoin:miter;stroke-miterlimit:4;stroke-dasharray:none;stroke-opacity:1" />
      <path
         style="display:inline;fill:#c78469;fill-opacity:1;stroke:#000000;stroke-width:1;stroke-linecap:butt;stroke-linejoin:miter;stroke-miterlimit:4;stroke-dasharray:none;stroke-opacity:1"
         d="m -4.6710523,-100.89297 c 4.91623999,1.743621 10.35157,3.423434 10.19573,8.637162 -1.74207,7.89718 -15.7637597,5.093677 -18.6900697,4.361921 5.1974997,-3.494548 7.8462997,-8.390025 8.4943397,-12.999083 z"
         id="path932"
         sodipodi:nodetypes="cccc" />
      <path
         style="display:inline;fill:#c78469;fill-opacity:1;stroke:#000000;stroke-width:1;stroke-linecap:butt;stroke-linejoin:miter;stroke-miterlimit:4;stroke-dasharray:none;stroke-opacity:1"
         d="m -4.5117623,-108.96016 c 1.76078,-2.68017 3.65543999,-5.23659 1.98159,-12.82337 -1.78477,-5.89619 0.18673,-7.6888 3.54468,-5.48459 5.91942,5.73335 5.48796,23.68425 -5.68556,26.37515 0.49019,-2.68906 0.55103,-5.37813 0.15929,-8.06719 z"
         id="path935"
         sodipodi:nodetypes="ccccc" />
      <path
         style="display:inline;fill:#000000;stroke:#000000;stroke-width:0.264583px;stroke-linecap:butt;stroke-linejoin:miter;stroke-opacity:1"
         d="m -41.882252,-159.80818 c -2.98263,2.94143 -1.39251,5.6822 0,7.28309 4.22945,4.19144 8.24533,3.42795 12.16076,0.33409 1.40518,-1.69024 4.1152,-4.79789 0.23935,-7.19683 -3.64059,-1.06886 -7.81663,-1.12856 -12.40011,-0.42035 z"
         id="path974"
         sodipodi:nodetypes="ccccc" />
      <path
         sodipodi:nodetypes="cc"
         id="path939-2"
         d="m -31.886159,-173.84007 c 2.55975,-1.4473 5.03338,-1.9096 7.12559,1.99034"
         style="display:inline;fill:none;stroke:#000000;stroke-width:1;stroke-linecap:butt;stroke-linejoin:miter;stroke-miterlimit:4;stroke-dasharray:none;stroke-opacity:1" />
      <ellipse
         style="fill:#000000;fill-opacity:1;stroke:none;stroke-width:0.0896053;stroke-dashoffset:132.057"
         id="path956"
         cx="-41.558907"
         cy="-166.62357"
         rx="2.5442579"
         ry="3.279249" />
      <ellipse
         ry="3.2792487"
         rx="2.5442579"
         cy="-166.42311"
         cx="-29.197699"
         id="path956-5"
         style="fill:#000000;fill-opacity:1;stroke:none;stroke-width:0.0896054;stroke-dashoffset:132.057" />
      <path
         style="display:inline;fill:none;stroke:#000000;stroke-width:1;stroke-linecap:butt;stroke-linejoin:miter;stroke-miterlimit:4;stroke-dasharray:none;stroke-opacity:1"
         d="m -47.238388,-171.63486 c 1.38556,-2.59369 3.22626,-4.30961 7.08264,-2.13815"
         id="path939"
         sodipodi:nodetypes="cc" />
      <g
         id="g987"
         transform="translate(134.18155,1.889881)">
        <path
           sodipodi:nodetypes="ccc"
           id="path981"
           d="m -170.2841,-151.50841 v 10.18965 c 3.80518,3.38647 9.62338,5.61108 12.86235,-1.10249"
           style="fill:none;stroke:#000000;stroke-width:1;stroke-linecap:butt;stroke-linejoin:miter;stroke-miterlimit:4;stroke-dasharray:none;stroke-opacity:1" />
        <path
           sodipodi:nodetypes="cc"
           id="path983"
           d="m -170.2841,-141.31876 c -3.27274,3.72546 -9.02753,5.10705 -12.82893,-0.7684"
           style="fill:none;stroke:#000000;stroke-width:1;stroke-linecap:butt;stroke-linejoin:miter;stroke-miterlimit:4;stroke-dasharray:none;stroke-opacity:1" />
      </g>
    </g>
    <text
       id="text1095"
       y="12.567708"
       x="-33.167408"
       style="font-weight:bold;font-size:10.5833px;line-height:1.25;font-family:'Rotis Serif Pro';-inkscape-font-specification:'Rotis Serif Pro Bold';stroke-width:0.264583"
       xml:space="preserve"><tspan
         id="tspan1097"
         style="stroke-width:0.264583"
         y="12.567708"
         x="-33.167408"
         sodipodi:role="line" /></text>
  </g>
</svg>
